# xmcd CD database file
#
# Track frame offsets:
#	150
#	14647
#	30535
#	47156
#	61622
#	77420
#	94993
#	114061
#	128750
#	145930
#	156907
#	170770
#	183179
#	198652
#
# Disc length: 2831 seconds
#
# Revision: 0
# Processed by: cddbd v1.5.2PL0 Copyright (c) Steve Scherf et al.
# Submitted via: CDex 1.51
#
DISCID=b40b0d0e
DTITLE=The BossHoss - Stallion Battallion
DYEAR=2007
DGENRE=Country
TTITLE0=Stallion Battalion
TTITLE1=Monkey Business
TTITLE2=Shake and Shout
TTITLE3=José And Myling
TTITLE4=Free Love On A Free Love Free Way
TTITLE5=Polk Salad Annie
TTITLE6=Omniscient Lover
TTITLE7=Everything Counts
TTITLE8=Goodbye Mary
TTITLE9=Gay Bar
TTITLE10=Truck'n'Roll Rules
TTITLE11=High
TTITLE12=Drop It Like It's Hot
TTITLE13=Jumpin'Around
EXTD=YEAR: 2007
EXTT0=
EXTT1=
EXTT2=
EXTT3=
EXTT4=
EXTT5=
EXTT6=
EXTT7=
EXTT8=
EXTT9=
EXTT10=
EXTT11=
EXTT12=
EXTT13=
PLAYORDER=
